<svg xmlns="http://www.w3.org/2000/svg">
<symbol id="phone">
<path d="M23.9481 18.5956C23.8802 18.3911 23.4483 18.0898 22.6528 17.6924C22.4372 17.5671 22.1301 17.3969 21.7328 17.181C21.335 16.965 20.974 16.7661 20.6504 16.5842C20.3261 16.4024 20.0222 16.2263 19.7384 16.0561C19.693 16.022 19.551 15.9227 19.3123 15.7576C19.0735 15.5929 18.872 15.4707 18.707 15.391C18.5422 15.3118 18.3802 15.2719 18.2211 15.2719C17.9939 15.2719 17.7101 15.4339 17.3693 15.7576C17.0285 16.0816 16.7159 16.4336 16.432 16.8147C16.148 17.1955 15.8468 17.5475 15.5289 17.8714C15.2106 18.1954 14.949 18.3572 14.7447 18.3572C14.6422 18.3572 14.5143 18.3286 14.361 18.2722C14.2078 18.2154 14.0913 18.1668 14.0113 18.1276C13.932 18.0875 13.7959 18.0082 13.6026 17.8885C13.409 17.7692 13.3013 17.7038 13.2786 17.6924C11.7218 16.8286 10.3867 15.8399 9.273 14.7266C8.15962 13.6127 7.17084 12.2777 6.30725 10.7208C6.29591 10.6981 6.23042 10.5901 6.11119 10.397C5.99179 10.2038 5.91221 10.0676 5.87245 9.98781C5.83268 9.90835 5.78439 9.79181 5.72767 9.63844C5.67095 9.48506 5.64248 9.3573 5.64248 9.25491C5.64248 9.05049 5.80445 8.789 6.12833 8.47079C6.45215 8.15276 6.80451 7.8515 7.18505 7.56762C7.56589 7.28374 7.91789 6.97114 8.24183 6.63036C8.56565 6.2894 8.72756 6.00546 8.72756 5.77824C8.72756 5.61925 8.6878 5.45716 8.60834 5.29244C8.52882 5.12737 8.40667 4.92594 8.24183 4.68719C8.07693 4.44856 7.97753 4.30665 7.94338 4.26098C7.77311 3.97709 7.59717 3.67315 7.41514 3.34927C7.23311 3.02545 7.03442 2.66449 6.81842 2.26682C6.6026 1.86932 6.43227 1.5624 6.30713 1.34651C5.90964 0.551227 5.60856 0.119224 5.40397 0.0512838C5.32438 0.0171941 5.20498 0 5.04605 0C4.73907 0 4.33859 0.0567167 3.84432 0.170508C3.34987 0.284121 2.96079 0.403286 2.67667 0.52848C2.10849 0.766989 1.50628 1.46013 0.869857 2.60766C0.290332 3.6756 0.000598907 4.73262 0.000598907 5.77794C0.000598907 6.08451 0.0204796 6.38278 0.060241 6.67281C0.100002 6.96254 0.171047 7.28929 0.273436 7.65299C0.375645 8.01658 0.458093 8.28667 0.520422 8.46255C0.58281 8.63855 0.699289 8.95384 0.869797 9.40852C1.04007 9.86309 1.14245 10.1414 1.17654 10.2436C1.57422 11.3573 2.0458 12.3515 2.59118 13.2266C3.4885 14.681 4.71304 16.1841 6.26409 17.7353C7.8152 19.2864 9.31802 20.5108 10.7726 21.4085C11.6475 21.9538 12.6421 22.4254 13.7556 22.8233C13.8579 22.8573 14.1362 22.9594 14.5906 23.1303C15.0451 23.3007 15.3605 23.4171 15.5365 23.4796C15.7126 23.5422 15.9828 23.6247 16.346 23.7271C16.7101 23.8295 17.0366 23.9005 17.3263 23.9406C17.6162 23.9798 17.9145 24.0001 18.2212 24.0001C19.2664 24.0001 20.3235 23.7101 21.3916 23.1307C22.539 22.4945 23.232 21.8922 23.4706 21.3236C23.5961 21.0397 23.715 20.6506 23.8286 20.1561C23.9426 19.6619 23.9992 19.2615 23.9992 18.9545C23.9995 18.795 23.9824 18.6759 23.9481 18.5956Z"/>
</symbol>
<symbol id="leaf-icons">
<path d="M8.48057 31.0363C8.48057 31.6525 8.78867 32.2686 8.78867 32.8848C8.78867 35.3496 9.09676 39.3547 9.09676 39.3547H10.6372C10.6372 39.3547 10.6372 32.8848 9.71294 29.4958C8.78867 25.7987 8.48058 19.0207 10.6372 14.0913L9.09676 13.4751C9.09676 13.4751 7.24821 17.1722 7.24821 23.0259C7.24821 26.723 7.5563 28.2635 7.86439 29.8039C6.63203 28.8796 3.24303 25.7987 3.55112 19.3288C4.1673 11.9346 10.6372 5.15664 10.6372 5.15664C10.6372 5.15664 22.0366 15.9398 11.8696 27.9554L13.1019 28.8797C13.1019 28.8797 17.7233 23.6421 17.7233 17.7884C17.7233 11.9346 15.2586 7.00518 10.6372 3C10.6372 3 2.62685 10.7023 2.01066 19.945C1.70257 28.5716 8.17248 31.6525 8.17248 31.6525L8.48057 31.0363Z" fill="white"/>
<path d="M24.5013 23.0259C13.1019 26.4149 13.7181 37.5062 14.0262 39.9709C10.021 43.9761 8.17249 47.6732 8.17249 47.6732L9.40485 48.2894C21.1123 28.8797 39.2897 32.5768 39.2897 32.5768V31.0363C28.1984 29.8039 20.4961 34.1172 15.2586 38.4305C14.9505 34.4253 16.799 24.8745 28.5065 23.9502C42.0625 23.6421 48.5324 31.6525 48.5324 31.6525C41.4463 43.0518 33.436 44.5923 28.5065 45.2085C23.2689 46.1328 16.799 42.4357 16.799 42.4357L16.1829 43.668C16.1829 43.668 21.7285 47.3651 28.8146 46.7489C44.2191 44.9004 50.0729 31.3444 50.0729 31.3444C48.5324 28.2635 37.133 19.945 24.5013 23.0259Z" fill="white"/>
</symbol>
<symbol id="auto-icons">
<path d="M8.68487 21.0953L11.4295 18.8996H11.7039C12.5273 18.8996 13.0762 18.3507 13.0762 17.5273C13.0762 16.9784 12.8018 16.7039 12.5273 16.4295V10.6658H11.155V16.4295C10.6061 16.7039 10.3316 16.9784 10.3316 17.5273V17.8018L7.58703 19.9975L8.68487 21.0953Z" fill="white"/>
<path d="M50.4028 35.9161V27.1334C50.4028 24.3888 49.3049 23.291 49.3049 23.291C49.3049 23.291 46.5603 19.723 44.9136 17.5273C43.2668 15.3316 41.0711 15.3316 41.0711 15.3316H31.7395V13.9593C31.7395 12.0381 30.3672 10.6658 28.446 10.6658H20.4866C18.5654 7.92122 15.2719 6 11.7039 6C5.66582 6 1 10.9403 1 16.9784C1 19.4485 1.82338 21.6442 3.19568 23.5654V35.6417C3.19568 37.5629 4.56798 38.9352 6.48919 38.9352H7.86149V39.2096C7.86149 42.5031 10.6061 45.2477 13.8996 45.2477C17.1931 45.2477 19.9377 42.5031 19.9377 39.2096C19.9377 38.9352 19.9377 38.9352 19.9377 38.9352H28.1715H28.446C29.2694 38.9352 31.1906 38.9352 33.6607 38.9352V39.2096C33.6607 42.5031 36.4053 45.2477 39.6988 45.2477C42.9923 45.2477 45.7369 42.5031 45.7369 39.2096C45.7369 38.9352 45.7369 38.9352 45.7369 38.9352C46.0114 38.9352 46.2859 38.9352 46.2859 38.9352C50.9517 39.2096 50.4028 35.9161 50.4028 35.9161ZM49.0305 26.31C49.0305 26.31 49.0305 26.5845 49.0305 27.1334H38.3265C37.7776 27.1334 37.2287 26.5845 37.2287 26.0356V21.6442C37.2287 21.0953 37.7776 20.5464 38.3265 20.5464H45.4625C46.2859 21.3697 47.1092 22.4676 47.6582 23.291C49.0305 24.9377 49.0305 26.31 49.0305 26.31ZM11.7039 7.64676C16.9187 7.64676 21.31 11.7637 21.31 17.2529C21.31 22.742 16.9187 26.5845 11.7039 26.5845C6.4892 26.5845 2.3723 22.1931 2.3723 16.9784C2.3723 11.7637 6.4892 7.64676 11.7039 7.64676ZM13.6251 43.8754C11.155 43.8754 9.23379 41.9542 9.23379 39.4841C9.23379 37.014 11.155 35.0927 13.6251 35.0927C16.0953 35.0927 18.0165 37.014 18.0165 39.4841C18.0165 41.9542 16.0953 43.8754 13.6251 43.8754ZM19.1143 37.5629C18.291 35.3672 16.0953 33.446 13.6251 33.446C11.155 33.446 8.95933 35.0927 8.13595 37.5629H6.21474C5.39136 37.5629 4.56798 36.7395 4.56798 35.9161V24.9377C6.48919 26.5845 8.95933 27.6823 11.7039 27.6823C17.742 27.6823 22.4079 22.742 22.4079 16.9784C22.4079 15.3316 21.8589 13.6849 21.31 12.3126H28.446C29.2694 12.3126 30.0927 13.136 30.0927 13.9593V35.9161C30.0927 36.7395 29.2694 37.5629 28.446 37.5629H19.1143ZM39.4244 43.8754C36.9542 43.8754 35.033 41.9542 35.033 39.4841C35.033 37.014 36.9542 35.0927 39.4244 35.0927C41.8945 35.0927 43.8157 37.014 43.8157 39.4841C43.8157 41.9542 41.8945 43.8754 39.4244 43.8754ZM46.2859 37.8373H45.188C44.3646 35.3672 42.169 33.7204 39.6988 33.7204C36.9542 33.7204 34.7585 35.3672 34.2096 37.8373H31.465C32.014 37.2884 32.2884 36.7395 32.2884 35.9161V16.4295C32.2884 16.4295 38.3265 16.4295 40.7967 16.4295C43.2668 16.4295 44.3646 18.0762 44.3646 18.0762C44.3646 18.0762 44.0902 18.6251 44.6391 19.1741H38.3265C36.9542 19.1741 36.1308 20.2719 36.1308 21.3697V25.7611C36.1308 27.1334 37.2287 27.9568 38.3265 27.9568H49.3049C49.3049 30.1525 49.3049 33.446 49.3049 35.0927C49.0305 38.1118 46.2859 37.8373 46.2859 37.8373Z" fill="white"/>
</symbol>
<symbol id="tape-icons">
<path d="M15.9398 11.6266C15.9398 12.2428 17.1722 12.8589 19.0207 12.8589C20.8693 12.8589 22.1016 12.2428 22.1016 11.6266C22.1016 11.0104 20.8693 10.3942 19.0207 10.3942C17.4803 10.3942 15.9398 10.7023 15.9398 11.6266Z" fill="white"/>
<path d="M49.2137 23.0259C49.2137 19.945 46.7489 17.4803 43.668 17.4803H42.4356H15.3236C15.3236 17.4803 7.92946 17.7884 4.54046 11.9346C4.84855 7.62137 8.23755 4.54046 12.5508 4.54046H24.8745C29.4958 4.54046 32.8848 8.23755 32.8848 12.5508V14.0913H34.4253V12.8589C34.4253 7.31327 30.112 3 24.5664 3H12.8589C7.31327 3 3 7.31327 3 12.8589V16.8641V17.4803V27.3392C3 32.8848 7.31327 37.1981 12.8589 37.1981H15.0155V35.6576H12.5508C7.92946 35.6576 4.54046 31.9606 4.54046 27.6473V17.4803V16.8641V14.7075C5.46473 15.9398 8.54564 19.0207 15.0155 19.0207C24.2583 19.0207 42.1276 19.0207 42.1276 19.0207H43.668C45.8246 19.0207 47.3651 20.5612 47.3651 22.7178V24.5664V25.1826C47.3651 27.3392 45.8246 28.8797 43.668 28.8797H43.3599H23.9502C20.8693 28.8797 18.4046 31.3444 18.4046 34.4253V42.7437C18.4046 45.8247 20.8693 48.2894 23.9502 48.2894H43.668C46.7489 48.2894 49.2137 45.8247 49.2137 42.7437V34.4253C49.2137 34.4253 49.2137 27.0311 49.2137 24.8745C49.2137 24.8745 49.2137 24.8745 49.2137 24.5664V23.0259ZM47.3651 43.3599C47.3651 45.5166 45.8246 47.057 43.668 47.057H23.6421C21.4855 47.057 19.945 45.5166 19.945 43.3599V34.4253C19.945 32.2686 21.4855 30.7282 23.6421 30.7282H29.4958V35.9657H31.0363V30.7282H38.1224H40.8952V35.9657H42.4356V30.7282H43.668C45.2085 30.7282 46.7489 30.112 47.6732 29.1877V43.3599H47.3651Z" fill="white"/>
</symbol>
<symbol id="feat-1">
<path d="M34 2C16.4314 2 2 16.4314 2 34C2 51.5686 16.4314 66 34 66C51.5686 66 66 51.5686 66 34C66 16.4314 51.5686 2 34 2ZM34 63.4902C17.6863 63.4902 4.5098 50.3137 4.5098 34C4.5098 17.6863 17.6863 4.5098 34 4.5098C50.3137 4.5098 63.4902 17.6863 63.4902 34C63.4902 50.3137 50.3137 63.4902 34 63.4902Z" fill="black"/>
<path d="M34 50.6275C23.0196 50.6275 16.4314 40.902 16.4314 40.902L14.2353 42.4706C23.0196 53.7647 34 53.451 34 53.451C34 53.451 44.9804 54.0785 53.7647 42.4706L51.5686 40.902C51.5686 40.902 44.9804 50.6275 34 50.6275Z" fill="black"/>
<path d="M23.3333 37.451C30.8627 34 32.1176 29.6078 32.1176 27.4118C32.1176 24.902 30.549 22.0784 27.7255 22.0784C24.5882 22.0784 23.3333 23.6471 23.3333 23.6471C23.3333 23.6471 22.0784 22.0784 18.9412 22.0784C16.1176 22.0784 14.549 25.2157 14.549 27.4118C14.549 29.6078 15.8039 34 23.3333 37.451ZM23.3333 26.7843C24.902 24.2745 29.2941 23.9608 29.6078 27.098C29.6078 31.4902 23.3333 34.6275 23.3333 34.6275C23.3333 34.6275 17.0588 31.4902 17.0588 27.098C17.3725 23.9608 21.7647 24.2745 23.3333 26.7843Z" fill="black"/>
<path d="M44.6667 37.451C52.1961 34 53.451 29.6078 53.451 27.7255C53.451 25.2157 51.8824 22.3922 49.0588 22.3922C45.9216 22.3922 44.6667 23.9608 44.6667 23.9608C44.6667 23.9608 43.4118 22.3922 40.2745 22.3922C37.451 22.3922 35.8824 25.5294 35.8824 27.7255C35.8824 29.6078 37.1373 34 44.6667 37.451ZM44.6667 26.7843C46.2353 24.2745 50.6274 23.9608 50.9412 27.098C50.9412 31.4902 44.6667 34.6274 44.6667 34.6274C44.6667 34.6274 38.3922 31.4902 38.3922 27.098C38.7059 23.9608 43.098 24.2745 44.6667 26.7843Z" fill="black"/>
</symbol>
<symbol id="feat-2">
<path d="M62.03 19.665C62.72 18.975 63.41 18.285 63.755 17.595C66.17 14.49 65.825 13.11 63.41 11.04C60.995 8.97 57.2 12.075 57.2 12.075C57.2 12.075 56.855 12.42 56.51 12.765C52.715 9.315 47.885 6.555 42.365 5.175C40.295 2.07 37.19 0 33.74 0C29.945 0 26.84 2.415 24.77 5.52C20.285 6.9 16.145 9.315 12.695 12.42C12.005 12.075 10.625 10.695 8.9 10.35C6.485 10.005 4.07 11.73 3.725 14.145C3.725 15.525 5.105 17.595 6.83 19.665C3.725 24.495 2 30.015 2 36.225C2 53.82 16.49 68.31 34.43 68.31C40.64 68.31 46.85 66.585 51.68 63.48L50.645 61.065C46.16 49.68 47.195 42.435 47.54 38.985C48.575 35.19 52.37 30.015 54.44 27.255C55.82 25.53 57.89 23.805 59.96 21.735C62.72 25.875 64.1 30.705 64.1 36.225C64.1 44.16 60.65 51.405 55.475 56.925L57.545 58.65C63.41 52.785 66.86 44.85 66.86 36.225C66.86 30.015 65.135 24.495 62.03 19.665ZM33.74 2.76C38.225 2.76 41.675 6.9 41.675 12.075C41.675 17.25 38.225 21.39 33.74 21.39C29.255 21.39 25.805 17.595 25.805 12.075C25.805 6.555 29.255 2.76 33.74 2.76ZM33.74 24.15C39.605 24.15 44.435 18.63 44.435 12.075C44.435 10.695 44.09 9.66 43.745 8.28C47.885 9.66 51.335 11.73 54.44 14.49C51.68 16.905 47.54 20.01 45.47 21.39C42.365 23.805 37.19 26.22 33.05 26.22C28.91 26.22 26.84 24.495 23.735 23.115C20.975 21.735 16.49 16.56 14.42 14.49C17.18 12.075 20.285 10.35 23.39 8.97C23.39 10.005 23.045 11.04 23.045 12.075C23.045 18.975 27.875 24.15 33.74 24.15ZM4.76 36.225C4.76 31.05 6.14 26.22 8.555 21.735C9.245 22.425 9.59 22.77 9.59 22.77C9.59 22.77 18.215 32.775 19.94 35.19C21.665 37.605 19.595 39.33 18.215 45.54C17.18 50.37 17.18 56.925 17.18 60.03C9.59 54.51 4.76 45.885 4.76 36.225ZM58.235 19.665C56.855 21.045 52.025 25.185 47.885 31.74C43.745 38.295 44.435 43.47 44.78 47.265C45.125 51.06 46.16 54.51 46.505 55.89C46.85 56.925 48.23 60.72 48.575 61.755C44.435 63.825 39.605 65.205 34.775 65.205C29.255 65.205 24.425 63.825 19.94 61.41C19.94 49.68 20.63 47.955 20.975 46.23C20.975 44.505 22.01 41.055 23.045 38.295C23.735 35.88 22.7 33.81 21.665 32.775C20.63 31.74 10.625 19.665 8.9 17.25C6.83 14.835 6.485 13.8 8.21 13.11C9.935 12.075 14.42 17.595 16.49 20.01C18.215 22.425 26.15 28.98 33.395 28.635C40.64 28.29 45.815 24.495 47.885 23.115C49.61 21.735 58.58 14.49 59.96 13.455C61.34 12.42 63.065 13.455 62.72 14.49C62.375 15.525 59.615 18.285 58.235 19.665Z" fill="black"/>
</symbol>
<symbol id="feat-3">
<path d="M51.9372 15.4497C45.9103 15.4497 38.1614 19.7547 38.4484 28.6515C38.4484 28.6515 26.6816 24.9206 23.2377 37.2614C23.2377 37.2614 21.2287 32.9565 18.6457 30.9475C15.7758 28.9385 12.3318 23.7726 12.0448 21.1896C12.3318 19.7547 12.6188 19.7547 13.1928 19.4677C13.4798 19.4677 13.4798 21.7636 16.0628 22.0506C18.3587 21.7636 18.9327 21.1896 19.7937 20.0417L22.3767 17.1717C22.3767 17.1717 24.9596 13.7278 22.6637 12.0058C20.6547 9.99681 16.9238 6.26587 12.3318 7.12686C9.74888 7.70085 7.73991 9.70982 7.73991 9.70982L4.29596 12.8668C4.29596 12.8668 2 15.1627 2 19.7547C2 23.7726 2.86099 30.3735 2.86099 30.3735C2.86099 30.3735 3.72197 35.5394 4.00897 37.2614C4.29596 38.9834 6.59193 49.0282 12.0448 54.4811C15.4888 58.4991 17.4978 60.221 19.2197 60.508C22.0897 60.508 23.5247 58.7861 25.8206 58.7861C28.1166 58.7861 30.4126 60.508 35.2915 60.508C40.1704 60.508 51.0762 57.6381 55.6682 43.5753C59.9731 41.8533 66 38.6964 66 29.2255C66 19.7547 57.6771 15.4497 51.9372 15.4497ZM53.9462 41.8533C50.7892 54.4811 40.7444 57.9251 35.8655 58.4991C31.2735 58.4991 28.6906 56.7771 25.2466 56.7771C23.2377 56.7771 20.3677 58.4991 19.5067 58.4991C18.6457 58.4991 16.3498 56.4901 13.4798 53.3331C10.6099 50.1762 9.46188 47.3062 8.3139 45.0103C7.16592 42.7143 5.15695 33.5304 5.15695 33.5304C5.15695 33.5304 4.29596 24.3466 4.29596 20.3287C4.29596 16.5977 6.01794 14.3017 6.01794 14.3017C6.01794 14.3017 8.3139 12.2928 10.6099 10.2838C13.1928 8.27484 16.3498 9.70982 16.3498 9.70982C16.3498 9.70982 19.5067 11.7188 20.6547 12.8668C22.0897 14.0148 20.6547 15.1627 20.6547 15.1627C20.6547 15.1627 17.4978 19.1807 16.3498 19.4677C14.9148 19.7547 14.6278 16.3107 14.6278 16.3107C13.1928 16.8847 10.8969 17.4587 10.0359 20.0417C9.17489 23.1986 13.7668 29.7995 17.2108 32.9565C20.3677 36.1134 22.3767 41.2793 22.3767 41.2793L24.9596 40.4183C24.9596 40.4183 24.6726 34.3914 29.8386 31.2345C35.5785 28.0775 40.7444 32.3825 40.7444 32.3825C39.0224 18.0327 51.6502 17.7457 52.5112 17.7457C53.3722 17.7457 63.417 18.6067 64.278 28.6515C63.704 40.1313 53.9462 41.8533 53.9462 41.8533Z" fill="black"/>
</symbol>
<symbol id="vk">
<path d="M19.891 14.6049C19.891 14.5504 19.8365 14.4959 19.8365 14.4959C19.5095 13.8965 18.8011 13.079 17.8202 12.2071C17.3842 11.7711 17.1117 11.4986 17.0027 11.3351C16.7847 11.0627 16.7302 10.7902 16.8392 10.5177C16.9482 10.2997 17.2207 9.86376 17.7657 9.15531C18.0381 8.77384 18.2561 8.50136 18.4196 8.28338C19.6185 6.703 20.1635 5.66757 20 5.23161L19.9455 5.12261C19.891 4.95913 19.782 4.90463 19.6185 4.85013C19.455 4.79564 19.2371 4.79564 18.9646 4.85013H15.9673C15.9128 4.85013 15.8583 4.85013 15.7493 4.85013C15.6403 4.85013 15.6403 4.90463 15.6403 4.90463H15.5858L15.5313 4.95913C15.4768 4.95913 15.4768 5.01362 15.4223 5.06812C15.3678 5.12261 15.3678 5.17711 15.3134 5.23161C14.9864 6.04904 14.6049 6.86648 14.2234 7.57493C13.951 8.0109 13.733 8.39237 13.515 8.71934C13.297 9.04632 13.1335 9.2643 12.97 9.42779C12.8065 9.59128 12.6975 9.70027 12.5886 9.80926C12.4796 9.91825 12.3706 9.91825 12.3161 9.91825C12.2616 9.91825 12.2071 9.86376 12.1526 9.86376C12.0436 9.80926 11.9891 9.70027 11.9346 9.59128C11.8801 9.48229 11.8256 9.3733 11.8256 9.20981C11.8256 9.04632 11.7711 8.88283 11.7711 8.77384C11.7711 8.66485 11.7711 8.50136 11.7711 8.28338C11.7711 8.06539 11.7711 7.90191 11.7711 7.84741C11.7711 7.57493 11.7711 7.30245 11.7711 6.97548C11.7711 6.6485 11.7711 6.43052 11.7711 6.26703C11.7711 6.10354 11.7711 5.88556 11.7711 5.66757C11.7711 5.44959 11.7711 5.2861 11.7166 5.17711C11.7166 5.06812 11.6621 4.95913 11.6076 4.85013C11.5531 4.74114 11.4986 4.63215 11.3896 4.57766C11.2807 4.52316 11.1717 4.46866 11.0627 4.41417C10.6812 4.30518 10.2452 4.30518 9.64578 4.30518C8.33788 4.30518 7.52044 4.35967 7.13896 4.57766C6.97548 4.63215 6.86648 4.74114 6.75749 4.90463C6.6485 5.06812 6.59401 5.12261 6.703 5.17711C7.13896 5.23161 7.41144 5.39509 7.57493 5.61308L7.62943 5.72207C7.68392 5.83106 7.73842 5.99455 7.79292 6.21253C7.84741 6.43052 7.84741 6.703 7.90191 6.97548C7.9564 7.46594 7.9564 7.90191 7.90191 8.28338C7.84741 8.66485 7.84741 8.93733 7.79292 9.10082C7.73842 9.3188 7.73842 9.48229 7.62943 9.59128C7.57493 9.70027 7.52044 9.80926 7.52044 9.80926C7.52044 9.86376 7.46594 9.86376 7.46594 9.86376C7.35695 9.91825 7.30245 9.91825 7.19346 9.91825C7.08447 9.91825 6.97548 9.86376 6.86649 9.75477C6.703 9.64577 6.59401 9.53678 6.43052 9.3733C6.26703 9.20981 6.10354 8.99182 5.94005 8.66485C5.77657 8.33787 5.55858 8.0109 5.3406 7.57493L5.17711 7.24795C5.06812 7.02997 4.90463 6.75749 4.74114 6.37602C4.57766 5.99455 4.41417 5.66757 4.25068 5.2861C4.19619 5.17711 4.08719 5.06812 3.9782 4.95913H3.92371C3.86921 4.90463 3.81471 4.90463 3.76022 4.85013C3.70572 4.85013 3.59673 4.79564 3.54223 4.79564H0.708447C0.381471 4.79564 0.163488 4.90463 0.0544959 5.01362V5.06812C0 5.12261 0 5.17711 0 5.23161C0 5.2861 0 5.39509 0.0544959 5.50409C0.490463 6.48501 0.92643 7.41144 1.41689 8.33787C1.90736 9.2643 2.34332 9.97275 2.6703 10.5177C3.05177 11.0627 3.37875 11.6076 3.76022 12.0981C4.14169 12.5886 4.35967 12.9155 4.52316 13.0245C4.63215 13.188 4.74114 13.2425 4.79564 13.3515L5.06812 13.624C5.23161 13.7875 5.50409 14.0054 5.77657 14.2234C6.10354 14.4414 6.43052 14.6594 6.86649 14.9319C7.24796 15.1499 7.73842 15.3678 8.22888 15.4768C8.77384 15.6403 9.2643 15.6948 9.75477 15.6403H10.9537C11.1717 15.6403 11.3896 15.5313 11.4986 15.4223L11.5531 15.3678C11.6076 15.3133 11.6076 15.2589 11.6076 15.1499C11.6076 15.0409 11.6621 14.9864 11.6621 14.8774C11.6621 14.6049 11.6621 14.3324 11.7166 14.0599C11.7711 13.842 11.8256 13.624 11.8801 13.515C11.9346 13.406 12.0436 13.297 12.0981 13.188C12.2071 13.079 12.2616 13.079 12.2616 13.0245C12.3161 13.0245 12.3161 12.97 12.3706 12.97C12.5341 12.9155 12.752 12.97 12.97 13.1335C13.188 13.297 13.406 13.515 13.624 13.733C13.842 13.951 14.0599 14.2234 14.3324 14.5504C14.6049 14.8229 14.8774 15.0954 15.0409 15.2044L15.2589 15.3133C15.4223 15.4223 15.5858 15.4768 15.8038 15.5313C16.0218 15.5858 16.2398 15.6403 16.4033 15.5858L19.0736 15.5313C19.346 15.5313 19.564 15.4768 19.673 15.4223C19.8365 15.3133 19.891 15.2589 19.9455 15.1499C20 15.0409 20 14.9319 19.9455 14.7684C19.9455 14.7684 19.9455 14.6594 19.891 14.6049Z" fill="#B3B3B3"/>
</symbol>
<symbol id="f">
<path d="M20 18.9101C20 19.5095 19.5095 20 18.9101 20H13.7875V12.2616H16.4033L16.7847 9.26431H13.7875V7.35695C13.7875 6.48501 14.0054 5.88556 15.2589 5.88556H16.8392V3.16076C16.5668 3.10627 15.6403 3.05177 14.4959 3.05177C12.2071 3.05177 10.6267 4.46866 10.6267 7.02997V9.26431H8.0109V12.2616H10.6267V20H1.08992C0.490463 20 0 19.5095 0 18.9101V1.08992C0 0.490463 0.490463 0 1.08992 0H18.9101C19.5095 0 20 0.490463 20 1.08992V18.9101Z" fill="black" />
</symbol>
<symbol id="in">
<path d="M17.6022 0H2.39782C1.08992 0 0 1.03542 0 2.34332V17.6567C0 18.9646 1.08992 20 2.39782 20H17.6022C18.9101 20 20 18.9646 20 17.6567V2.34332C20 1.03542 18.9101 0 17.6022 0ZM14.3869 3.10627C14.3869 2.77929 14.6594 2.50681 14.9864 2.50681H16.8937C17.2207 2.50681 17.4932 2.77929 17.4932 3.10627V4.95913C17.4932 5.2861 17.2207 5.55858 16.8937 5.55858H15.0409C14.7139 5.55858 14.4414 5.2861 14.4414 4.95913L14.3869 3.10627ZM10.0272 6.15804C12.1526 6.15804 13.8965 7.84741 13.8965 9.97275C13.8965 12.0981 12.1526 13.7875 10.0272 13.7875C7.90191 13.7875 6.15804 12.0981 6.15804 9.97275C6.15804 7.90191 7.90191 6.15804 10.0272 6.15804ZM18.0926 17.4932C18.0926 17.8202 17.8202 18.0926 17.4932 18.0926H2.50681C2.17984 18.0926 1.90736 17.8202 1.90736 17.4932V8.11989H4.35967C4.0327 8.61035 3.92371 9.48229 3.92371 10.0272C3.92371 13.3515 6.6485 16.0763 10.0272 16.0763C13.406 16.0763 16.1308 13.3515 16.1308 10.0272C16.1308 9.48229 16.0763 8.61035 15.6403 8.11989H18.1471L18.0926 17.4932Z" fill="#B3B3B3"/>
</symbol>
<symbol id="tv">
<path d="M19.455 2.01613C18.6376 2.5066 17.7657 2.83357 16.8392 3.05155C16.0763 2.23412 15.0409 1.74365 13.842 1.74365C11.5531 1.74365 9.75477 3.65101 9.75477 5.93984C9.75477 6.26681 9.80926 6.59379 9.86376 6.92076C6.43052 6.70278 3.43324 5.01341 1.41689 2.4521C1.08992 3.05155 0.871935 3.8145 0.871935 4.57744C0.871935 6.04883 1.58038 7.30224 2.7248 8.06518C2.07084 8.06518 1.41689 7.84719 0.871935 7.52022V7.62921C0.871935 9.64556 2.28883 11.3894 4.14169 11.7709C3.81471 11.8799 3.43324 11.9344 3.05177 11.9344C2.77929 11.9344 2.50681 11.9344 2.28883 11.8799C2.83379 13.5693 4.30518 14.7682 6.10354 14.8227C4.68665 15.9671 2.94278 16.621 0.980926 16.621C0.653951 16.621 0.326975 16.621 0 16.5665C1.79837 17.7654 3.9782 18.4739 6.26703 18.4739C13.842 18.4739 17.9292 12.0434 17.9292 6.4848C17.9292 6.32131 17.9292 6.10332 17.9292 5.93984C18.7466 5.34038 19.455 4.63194 20 3.76C19.2916 4.08698 18.4741 4.30496 17.6567 4.41395C18.4741 3.8145 19.1281 2.99706 19.455 2.01613Z" fill="#B3B3B3"/>
</symbol>
</svg>
